<svg viewBox="0 0 19 19" xmlns="http://www.w3.org/2000/svg">
  <path d="M9.065 0C4.06 0 0 4.06 0 9.065c0 5.01 4.06 9.065 9.065 9.065a9.064 9.064 0 009.065-9.065C18.13 4.06 14.07 0 9.065 0zm5.755 4.178a7.542 7.542 0 011.78 4.387c-1.633-.085-3.588-.085-5.155.06-.199-.5-.402-.99-.624-1.463 1.809-.783 3.201-1.813 4-2.984zM9.065 1.511a7.52 7.52 0 014.82 1.737c-.821 1.039-2.11 1.94-3.715 2.625C9.292 4.25 8.28 2.852 7.205 1.752a7.58 7.58 0 011.86-.241zm-3.418.826c1.09 1.086 2.115 2.47 3.012 4.089-1.704.52-3.66.817-5.746.817-.397 0-.784-.015-1.166-.038a7.559 7.559 0 013.9-4.868zm-4.122 6.37c.43.018.864.028 1.303.023 2.38-.029 4.594-.402 6.497-1.01.18.372.35.755.51 1.147-.26.061-.491.127-.676.203-2.601 1.09-4.65 2.851-5.76 4.98a7.526 7.526 0 01-1.888-4.985c0-.123.005-.24.014-.359zm7.54 7.912a7.51 7.51 0 01-4.632-1.59c1.006-1.993 2.8-3.641 5.062-4.666.212-.099.495-.179.821-.25.27.746.51 1.52.723 2.323.325 1.251.557 2.488.698 3.687a7.484 7.484 0 01-2.672.496zm4.084-1.204a27.254 27.254 0 00-.704-3.725 25.49 25.49 0 00-.542-1.79c1.482-.122 3.257-.103 4.669 0a7.547 7.547 0 01-3.423 5.515z" fill-rule="nonzero"/>
</svg>