<svg viewBox="0 0 21 20" xmlns="http://www.w3.org/2000/svg">
  <g fill-rule="nonzero">
    <path d="M20.8 9.96c0 1.392-.027 2.788.009 4.18.06 2.464-1.488 4.368-3.46 5.216-.792.34-1.624.52-2.484.52-2.692.004-5.388.04-8.08-.012-2.028-.04-3.696-.888-4.892-2.56-.628-.88-.928-1.88-.928-2.964v-8.6c0-2.34 1.14-3.976 3.164-5.04C5.009.24 5.965.044 6.96.04c2.612 0 5.228-.016 7.84.008 2.028.016 3.72.792 4.968 2.424.696.912 1.032 1.96 1.032 3.112V9.96zm-18.36 0v4.4c0 .656.153 1.272.493 1.828.892 1.46 2.24 2.172 3.912 2.2 2.684.04 5.372.016 8.06.008.66 0 1.3-.136 1.896-.42 1.624-.776 2.532-2.012 2.524-3.868-.016-2.84-.004-5.68-.004-8.52a3.61 3.61 0 00-.704-2.188c-.92-1.244-2.192-1.856-3.712-1.872-2.68-.032-5.36-.012-8.04-.008-.572 0-1.124.116-1.66.316-1.472.548-2.84 1.936-2.776 3.98.048 1.384.012 2.764.012 4.144z"/>
    <path d="M10.905 14.2c-2.58 0-4.66-2.056-4.664-4.616C6.237 7.064 8.333 5 10.897 5c2.572-.004 4.66 2.056 4.664 4.596 0 2.536-2.084 4.6-4.656 4.604zm0-1.48c1.756 0 3.18-1.404 3.176-3.132-.004-1.712-1.428-3.112-3.176-3.112-1.756 0-3.188 1.396-3.188 3.12.004 1.728 1.432 3.128 3.188 3.124zM16.1 3.6c.54 0 .98.46.98 1.024-.003.564-.447 1.02-.987 1.016-.532-.004-.968-.46-.968-1.012-.004-.564.436-1.028.976-1.028z"/>
  </g>
</svg>