<svg viewBox="0 0 26 20" xmlns="http://www.w3.org/2000/svg">
  <path d="M24.04 16.752V7.62a.957.957 0 00-.96-.952.957.957 0 00-.962.952v9.524a.948.948 0 00.279.676l.288.276h-4.978l.288-.276c.18-.18.28-.423.279-.676V7.619a.963.963 0 00-1.845-.362l-4.422 10.476L5.693 4.362a1.027 1.027 0 00-.106-.172l-1.73-2.285h4.21l4.546 9.047a.962.962 0 001.749-.076l3.604-8.971h4.72l-.29.276a.948.948 0 00-.278.676v.952c0 .526.43.953.961.953.53 0 .961-.427.961-.953v-.561l1.644-1.62A.946.946 0 0025.886.59.961.961 0 0025 0h-7.688a.961.961 0 00-.894.6l-3.047 7.552L9.528.533A.962.962 0 008.663 0H1.935a.962.962 0 00-.855.524.945.945 0 00.086.952l2.826 3.762.346.733v8.315l-3.172 4.19a.945.945 0 00-.086 1.048.963.963 0 00.855.476h6.728a.962.962 0 00.855-.524.945.945 0 00-.086-1l-3.172-4.19v-4.21l4.411 9.371c.158.338.5.554.875.553h.961a.961.961 0 00.884-.59l2.96-7.03v4.372l-1.643 1.62a.946.946 0 00-.202 1.037.961.961 0 00.884.59h9.611a.961.961 0 00.885-.59.946.946 0 00-.202-1.038l-1.644-1.619zM3.857 18.095L5.3 16.19l1.442 1.905H3.857z"  fill-rule="nonzero"/>
</svg>