<svg viewBox="0 0 19 15" xmlns="http://www.w3.org/2000/svg">
  <path d="M16.067 2.34c.817-.502 1.358-1.187 1.622-2.058a8.772 8.772 0 01-2.377.871C14.602.388 13.702 0 12.623 0c-1.055 0-1.945.37-2.672 1.09a3.603 3.603 0 00-1.088 2.636c0 .312.04.591.118.828C5.871 4.448 3.297 3.157 1.27.673.925 1.28.753 1.9.753 2.54c0 1.316.555 2.36 1.663 3.125-.631-.054-1.189-.214-1.663-.476 0 .94.276 1.725.83 2.416A3.662 3.662 0 003.72 8.911c-.316.08-.648.12-.99.12-.316 0-.539-.027-.671-.085a3.573 3.573 0 001.305 1.863c.632.477 1.359.729 2.176.751-1.347 1.057-2.887 1.58-4.629 1.58-.427 0-.729-.006-.912-.038 1.716 1.115 3.626 1.668 5.739 1.668 2.162 0 4.073-.548 5.736-1.645 1.664-1.09 2.891-2.436 3.68-4.02a10.9 10.9 0 001.185-4.948v-.474A7.876 7.876 0 0018.2 1.74a8.23 8.23 0 01-2.133.6z" fill-rule="nonzero"/>
</svg>