<svg viewBox="0 0 74 74" xmlns="http://www.w3.org/2000/svg">
  <g fill="none" fill-rule="evenodd">
    <path fill="#010202" d="M0 74h74V0H0z"/>
    <path fill="#FFF" d="m11.365 30.992 27.748-1.954.817 11.74-27.748 1.954zM15.527 22.478c-.628 0-1.116-.132-1.463-.394a2.034 2.034 0 0 1-.723-1.063 5.128 5.128 0 0 1-.202-1.49V16.4c0-.6.068-1.121.202-1.567.136-.445.376-.79.723-1.035.347-.244.835-.367 1.463-.367.555 0 .995.102 1.32.307.325.204.558.496.701.876.142.38.213.836.213 1.37v.7H16.59v-.624a6.71 6.71 0 0 0-.05-.87c-.032-.253-.122-.448-.268-.587-.146-.139-.39-.208-.734-.208-.35 0-.606.075-.767.225-.16.15-.265.361-.312.635-.048.274-.071.594-.071.959v3.516c0 .445.036.797.11 1.057.072.259.193.443.36.553.169.11.395.164.68.164.336 0 .577-.075.723-.224.146-.15.237-.356.273-.62.037-.262.056-.569.056-.92v-.657h1.171v.658a4.73 4.73 0 0 1-.196 1.429 1.83 1.83 0 0 1-.68.964c-.321.23-.774.345-1.358.345M25.44 17.33h.47c.351 0 .636-.044.855-.132a.879.879 0 0 0 .482-.449c.102-.212.153-.507.153-.887 0-.519-.095-.893-.284-1.123-.19-.23-.567-.345-1.129-.345h-.547v2.936Zm-1.238 5.05v-8.873h1.785c.592 0 1.081.078 1.468.235.387.158.674.41.86.756.186.347.28.802.28 1.364 0 .343-.037.656-.11.936-.073.282-.19.52-.35.712-.162.194-.373.334-.636.422l1.26 4.447h-1.194l-1.161-4.162h-.964v4.162h-1.238ZM35.145 22.38v-8.873h3.44v.92h-2.203v2.935h1.786v.876h-1.786v3.254h2.225v.887zM46.131 19.257h1.48l-.746-3.998-.734 3.998Zm-1.753 3.122 1.885-8.872h1.193l1.896 8.872h-1.173l-.405-2.234h-1.807l-.427 2.234h-1.162Z"/>
    <path d="M19.122 39.608c.328 0 .577-.068.745-.203.168-.135.28-.325.34-.57a3.74 3.74 0 0 0 .087-.86v-3.888a3.6 3.6 0 0 0-.087-.849.947.947 0 0 0-.34-.548c-.168-.127-.417-.191-.745-.191s-.579.064-.75.191a.933.933 0 0 0-.345.548c-.059.238-.088.52-.088.849v3.889c0 .328.03.615.088.86a.988.988 0 0 0 .344.569c.172.135.423.203.751.203m0 .974c-.599 0-1.077-.116-1.435-.35a1.92 1.92 0 0 1-.767-1.002c-.153-.435-.23-.944-.23-1.528v-3.363c0-.584.079-1.086.236-1.506.156-.42.412-.741.767-.964.354-.223.83-.334 1.43-.334.598 0 1.072.113 1.423.34.35.226.604.547.761.963.157.417.235.917.235 1.5v3.375c0 .577-.078 1.08-.235 1.511a1.997 1.997 0 0 1-.761 1.002c-.35.238-.825.356-1.424.356M28.016 40.483v-8.87h.844l2.519 5.892v-5.893h1.03v8.871h-.79l-2.551-6.057v6.057z" fill="#000"/>
    <path fill="#FFF" d="M12.768 57.453V48.58h1.238v7.985h2.267v.888zM24.576 56.577c.328 0 .577-.068.745-.203.168-.135.28-.325.34-.57.058-.245.087-.53.087-.86v-3.888c0-.329-.03-.611-.087-.85a.947.947 0 0 0-.34-.547c-.168-.127-.417-.191-.745-.191s-.579.064-.75.191a.933.933 0 0 0-.345.548 3.58 3.58 0 0 0-.088.849v3.889c0 .328.03.614.088.859a.989.989 0 0 0 .344.57c.172.135.423.203.751.203m0 .974c-.599 0-1.077-.117-1.435-.35a1.922 1.922 0 0 1-.767-1.003c-.153-.434-.23-.943-.23-1.527v-3.363c0-.585.079-1.086.236-1.506.156-.42.412-.741.767-.965.354-.222.83-.334 1.43-.334.598 0 1.072.114 1.423.34.35.226.604.548.761.964.157.416.235.916.235 1.501v3.373c0 .578-.078 1.081-.235 1.512A1.997 1.997 0 0 1 26 57.195c-.35.238-.825.356-1.424.356M34.708 52.403h.47c.351 0 .636-.044.855-.132a.877.877 0 0 0 .482-.449c.102-.211.153-.507.153-.886 0-.52-.095-.893-.285-1.124-.19-.23-.566-.345-1.128-.345h-.547v2.936Zm-1.238 5.05V48.58h1.785c.592 0 1.081.079 1.468.236.387.157.674.409.86.755.186.347.279.802.279 1.365 0 .343-.037.655-.11.936a1.82 1.82 0 0 1-.35.712c-.16.193-.372.334-.635.421l1.26 4.448h-1.194L35.67 53.29h-.963v4.163H33.47ZM44.412 57.453V48.58h3.44v.92H45.65v2.936h1.785v.876H45.65v3.253h2.224v.888zM54.106 57.453l.164-8.873h1.216l1.567 7.197 1.577-7.197h1.205l.164 8.873h-.997l-.098-6.442-1.501 6.442h-.701l-1.49-6.442-.098 6.442z"/>
  </g>
</svg>