<svg xmlns="http://www.w3.org/2000/svg" xmlns:xlink="http://www.w3.org/1999/xlink" viewBox="0 0 342 334">
  <defs>
    <path id="a" d="M0 0h340v332H0z"/>
  </defs>
  <g fill="none" fill-rule="evenodd" opacity=".113" transform="translate(1 1)">
    <path stroke="#FFF" d="M0 0h340v332H0z"/>
    <mask id="b" fill="#fff">
      <use xlink:href="#a"/>
    </mask>
    <use stroke="#FFF" xlink:href="#a"/>
    <g stroke="#FFF" stroke-linecap="square" mask="url(#b)">
      <path d="M295.018-186.071L-252.02 34.946M298.764-176.8L-248.274 44.218M302.51-167.528L-244.527 53.49m550.784-211.746L-240.782 62.762m550.785-211.746L-237.036 72.034m550.785-211.746L-233.29 81.306M317.495-130.44L-229.544 90.577M321.24-121.169L-225.797 99.85m550.784-211.747l-547.039 221.018m550.785-211.746l-547.038 221.018M332.48-93.353l-547.04 221.018M336.225-84.081l-547.038 221.018M339.971-74.81l-547.038 221.018M343.717-65.538L-203.32 155.48M347.463-56.266l-547.038 221.018M351.21-46.994l-547.04 221.018M354.955-37.722l-547.038 221.018M358.702-28.45l-547.039 221.018M362.448-19.178l-547.039 221.017M366.194-9.907l-547.039 221.018M369.94-.635L-177.1 220.383M373.686 8.637l-547.039 221.018M377.432 17.909l-547.039 221.018M381.178 27.18L-165.861 248.2M384.924 36.453L-162.114 257.47M388.67 45.724l-547.038 221.018M392.416 54.996l-547.038 221.018M396.162 64.268l-547.038 221.018M399.908 73.54L-147.13 294.558M403.654 82.812L-143.384 303.83M407.4 92.084l-547.038 221.018m550.784-211.746l-547.038 221.017m550.785-211.746l-547.039 221.018M418.639 119.9L-128.4 340.916m550.785-211.745l-547.039 221.018M426.13 138.443L-120.907 359.46m550.784-211.745l-547.039 221.018m550.785-211.746l-547.039 221.017m550.785-211.746L-109.67 387.276M441.115 175.53l-547.039 221.018m550.785-211.746L-102.177 405.82m550.784-211.746L-98.43 415.092m550.783-211.746L-94.685 424.364M456.1 212.618L-90.94 433.635M459.845 221.89L-87.193 442.906m550.784-211.745L-83.447 452.18m550.784-211.747L-79.7 461.451m550.783-211.746L-75.955 470.723M474.83 258.977L-72.21 479.995m550.786-211.746L-68.463 489.266M482.322 277.52L-64.717 498.538m550.785-211.746L-60.971 507.81m550.785-211.746L-57.225 517.082M493.56 305.336L-53.48 526.354m550.786-211.746L-49.733 535.626M501.052 323.88L-45.986 544.898m550.784-211.747L-42.24 554.17"/>
    </g>
  </g>
</svg>