<?xml version="1.0" standalone="no"?>
<!DOCTYPE svg PUBLIC "-//W3C//DTD SVG 20010904//EN"
 "http://www.w3.org/TR/2001/REC-SVG-20010904/DTD/svg10.dtd">
<svg version="1.0" xmlns="http://www.w3.org/2000/svg"
 width="520.000000pt" height="520.000000pt" viewBox="0 0 520.000000 520.000000"
 preserveAspectRatio="xMidYMid meet">
<metadata>
Created by potrace 1.14, written by Peter Selinger 2001-2017
</metadata>
<g transform="translate(0.000000,520.000000) scale(0.100000,-0.100000)"
fill="#000000" stroke="none">
<path d="M0 2600 l0 -2600 2600 0 2600 0 0 2600 0 2600 -2600 0 -2600 0 0
-2600z m1181 1635 c39 -21 59 -63 66 -140 l6 -65 -40 0 -41 0 -7 65 c-7 70
-26 95 -73 95 -70 0 -82 -38 -82 -250 0 -217 12 -250 88 -250 42 0 59 26 67
103 l7 67 41 0 40 0 -5 -64 c-11 -128 -62 -180 -171 -173 -68 4 -103 26 -132
83 -18 35 -20 59 -20 234 0 214 8 252 59 286 55 36 137 39 197 9z m766 -11
c77 -56 85 -212 14 -265 l-28 -21 37 -131 c20 -73 40 -142 44 -154 7 -21 4
-23 -36 -23 l-43 0 -39 145 -39 145 -34 0 -33 0 0 -145 0 -145 -45 0 -45 0 0
311 0 311 109 -4 c91 -3 115 -7 138 -24z m763 -4 l0 -30 -75 0 -75 0 0 -105 0
-105 60 0 60 0 0 -30 0 -30 -60 0 -60 0 0 -115 0 -115 75 0 75 0 0 -30 0 -30
-120 0 -120 0 0 310 0 310 120 0 120 0 0 -30z m663 -147 c21 -98 51 -238 66
-310 l29 -133 -42 0 -42 0 -13 75 -12 75 -64 0 c-70 0 -68 2 -80 -75 -12 -73
-13 -75 -56 -75 -21 0 -39 2 -39 3 0 6 108 514 121 570 11 47 11 47 53 47 l42
0 37 -177z m-622 -940 c0 -16 12 -201 27 -412 19 -255 24 -384 17 -386 -31
-10 -1928 -136 -1934 -129 -9 11 -64 804 -56 812 4 4 1800 136 1918 141 23 1
27 -3 28 -26z m-1771 -1623 l0 -280 80 0 80 0 0 -35 0 -35 -120 0 -120 0 0
315 0 315 40 0 40 0 0 -280z m841 257 c65 -43 74 -78 74 -287 0 -204 -7 -239
-56 -286 -26 -25 -38 -29 -102 -32 -58 -2 -78 1 -104 17 -66 41 -68 51 -68
297 0 209 1 224 21 251 47 64 168 85 235 40z m761 0 c44 -18 68 -52 75 -106 9
-69 -5 -127 -39 -162 l-31 -31 38 -136 c20 -76 40 -145 43 -155 4 -16 -1 -18
-38 -15 l-43 3 -38 137 c-20 76 -40 142 -44 148 -3 5 -19 10 -36 10 l-29 0 0
-150 0 -150 -45 0 -45 0 0 316 0 317 98 -5 c54 -3 113 -12 134 -21z m778 -12
l0 -35 -75 0 -75 0 0 -100 0 -100 60 0 60 0 0 -35 0 -35 -60 0 -60 0 0 -110 0
-110 75 0 75 0 0 -35 0 -35 -120 0 -120 0 0 315 0 315 120 0 120 0 0 -35z
m554 -37 c9 -40 33 -152 55 -248 21 -96 41 -168 45 -160 3 8 26 109 51 223 25
115 48 219 51 233 5 20 12 24 44 24 23 0 40 -5 43 -14 3 -7 7 -148 8 -312 l3
-299 -31 -3 c-29 -3 -30 -2 -36 50 -4 29 -7 130 -8 223 l-1 170 -52 -220 c-50
-213 -52 -220 -76 -220 -23 0 -27 7 -48 95 -12 52 -35 149 -51 215 l-29 120
-1 -111 c-1 -61 -4 -159 -8 -217 l-6 -107 -33 0 -33 0 5 303 c3 166 7 308 10
315 2 7 20 12 43 12 l39 0 16 -72z"/>
<path d="M1790 4085 l0 -108 46 6 c66 7 85 30 85 102 0 72 -19 95 -85 102
l-46 6 0 -108z"/>
<path d="M3282 4060 c-6 -30 -18 -90 -25 -132 l-15 -78 49 0 c58 0 58 -6 25
155 l-22 110 -12 -55z"/>
<path d="M1250 2962 c-19 -11 -43 -36 -54 -58 -19 -35 -21 -57 -21 -234 0
-175 2 -199 20 -234 30 -59 64 -79 138 -84 82 -4 124 17 155 78 22 43 23 53
20 250 -3 228 -7 241 -71 280 -43 26 -139 27 -187 2z m155 -73 c18 -17 20 -36
24 -170 6 -251 -8 -299 -87 -299 -71 0 -77 15 -80 224 -4 206 4 249 46 265 34
13 71 5 97 -20z"/>
<path d="M1970 2670 l0 -310 35 0 35 0 2 208 3 207 86 -205 c85 -200 88 -205
118 -208 l31 -3 0 310 0 311 -35 0 -35 0 0 -202 c0 -126 -4 -198 -9 -192 -6 5
-46 96 -91 202 -80 187 -83 192 -111 192 l-29 0 0 -310z"/>
<path d="M1663 1693 c-15 -22 -19 -54 -21 -171 -6 -243 8 -294 82 -294 26 0
45 7 60 21 20 21 21 31 21 225 0 186 -2 206 -19 225 -14 15 -31 21 -62 21 -36
0 -47 -5 -61 -27z"/>
<path d="M2440 1620 l0 -100 34 0 c19 0 46 4 60 10 49 18 58 143 13 175 -12 8
-41 15 -64 15 l-43 0 0 -100z"/>
</g>
</svg>
